<svg xmlns="http://www.w3.org/2000/svg" viewBox="0 0 1200 900" role="img" aria-labelledby="title desc">
  <title id="title">파주시 행정경계 v29.1 보정 비교</title>
  <desc id="desc">기존 19점 단순 경계와 SGIS 계열 289점 보정 경계, 고양시 접경과 운정중앙역을 비교한 검증 그림</desc>
  <rect width="1200" height="900" fill="#f7f4ef"/>
  <text x="70" y="52" font-family="Arial,sans-serif" font-size="28" font-weight="800" fill="#26231f">PAJU BOUNDARY AUDIT · v29.1</text>
  <text x="70" y="82" font-family="Arial,sans-serif" font-size="17" fill="#67615a">SGIS 2026-04-01 derived boundary · WGS84 · 289 vertices</text>
  <path d="M676.6,802.6 L590.6,771.4 L578.6,764.9 L549.4,753.5 L440.4,716.4 L406.7,708.2 L372.5,689.9 L353.4,687.8 L235.7,654.1 L216.6,633.8 L224.8,611.2 L248.1,617.7 L266.7,628.6 L272.7,625.3 L281.9,624.3 L277.8,623.4 L278.9,621.5 L285.7,619.7 L292.8,616.2 L303.2,616.2 L319.6,612.0 L325.1,612.2 L331.8,611.5 L337.0,608.8 L343.9,609.0 L349.0,607.8 L350.8,606.2 L355.8,604.7 L357.5,606.8 L361.2,605.2 L365.4,604.9 L365.9,604.1 L376.5,604.0 L378.9,604.7 L388.0,605.0 L391.2,602.0 L394.4,602.2 L394.9,603.8 L397.9,604.7 L404.5,603.6 L408.5,605.9 L413.6,606.9 L416.7,607.2 L425.7,604.1 L431.6,605.1 L433.3,606.1 L437.6,605.9 L440.8,607.0 L452.1,604.7 L453.3,605.3 L457.5,602.8 L456.7,601.4 L466.1,602.8 L473.5,604.7 L475.4,605.9 L477.1,597.2 L479.7,593.7 L483.2,592.0 L491.0,585.6 L496.6,585.4 L497.3,584.0 L503.0,583.2 L502.9,581.5 L507.4,580.0 L510.8,577.5 L519.3,576.3 L526.7,572.7 L531.2,567.6 L530.0,563.1 L531.5,562.5 L527.1,559.9 L537.8,556.7 L545.7,561.7 L544.7,564.8 L546.9,568.0 L550.7,568.9 L552.8,571.0 L556.7,570.7 L567.4,572.5 L568.9,574.4 L576.3,576.4 L585.6,573.5 L596.1,573.7 L599.7,568.3 L602.0,569.8 L602.9,571.7 L605.3,572.5 L613.7,571.8 L615.8,569.8 L621.3,568.5 L624.8,570.3 L626.3,572.1 L628.4,572.2 L630.0,570.2 L635.2,570.7 L641.2,568.8 L641.9,567.9 L643.4,567.8 L643.4,566.5 L644.9,565.3 L650.1,564.0 L680.0,559.1 L698.6,562.9 L717.8,568.2 L723.8,567.1 L725.5,568.7 L727.2,573.0 L731.3,573.9 L742.6,572.7 L754.7,573.9 L760.5,575.7 L769.3,574.9 L774.7,573.3 L778.3,571.4 L791.6,571.6 L798.1,569.7 L796.2,556.9 L802.2,549.6 L813.2,546.0 L815.2,543.7 L824.5,541.0 L826.1,541.5 L832.7,540.6 L839.3,540.8 L842.8,541.6 L866.3,539.4 L870.3,557.9 L848.8,564.2 L857.0,598.7 L831.6,629.3 L821.5,658.3 L844.4,654.0 L901.0,653.4 L906.9,632.8 L928.4,622.7 L956.9,622.3 L1024.9,642.0 L1025.0,663.5 L993.4,677.2 L1008.6,701.0 L997.8,708.8 L953.5,716.3 L936.8,681.9 L913.6,675.6 L853.9,692.0 L824.2,694.7 L811.1,711.0 L811.2,728.0 L794.2,744.1 L798.0,767.9 L785.4,777.8 L736.9,781.2 L733.7,793.2 L705.3,794.3 Z" fill="#d7d2c9" fill-opacity=".55" stroke="#8a8278" stroke-width="2"/>
  <path d="M224.7,611.2 L303.6,631.0 L411.6,630.3 L507.0,608.7 L607.5,604.2 L707.9,584.8 L805.9,558.0 L883.8,507.3 L951.6,435.7 L996.8,337.4 L979.2,231.5 L883.8,146.6 L692.9,97.4 L481.9,118.2 L296.0,171.9 L165.4,247.9 L112.7,349.3 L145.3,450.7 L188.0,540.1 Z" fill="#d64545" fill-opacity=".05" stroke="#d64545" stroke-width="5" stroke-dasharray="14 10"/>
  <path d="M391.9,604.1 L381.8,604.7 L366.1,604.3 L362.3,605.8 L350.1,607.1 L333.9,611.3 L320.9,612.0 L302.5,617.3 L289.2,616.1 L282.5,619.3 L269.4,627.9 L259.3,624.2 L249.5,618.9 L232.1,611.5 L240.1,604.0 L249.9,591.7 L254.4,577.7 L252.8,573.4 L234.2,559.5 L225.7,537.1 L231.2,529.7 L224.8,515.8 L222.9,508.2 L215.5,495.8 L208.1,485.7 L198.8,481.3 L196.0,477.3 L203.3,464.6 L205.7,444.6 L219.8,422.9 L225.6,416.3 L220.1,413.6 L212.9,410.9 L191.0,404.7 L188.9,402.6 L193.0,397.6 L203.1,398.2 L218.2,394.3 L231.3,397.0 L239.8,394.1 L240.5,385.5 L258.5,372.7 L271.4,360.6 L249.4,352.3 L238.6,358.0 L222.2,358.1 L228.8,351.6 L229.5,347.5 L245.0,344.5 L231.8,336.6 L227.8,341.2 L221.5,338.8 L226.9,336.4 L221.2,330.4 L233.5,317.7 L233.3,306.9 L230.4,304.3 L241.9,296.9 L247.8,294.4 L246.6,290.8 L226.6,292.7 L215.9,292.2 L205.4,286.2 L204.5,282.0 L207.6,277.1 L213.7,271.8 L209.5,264.8 L214.6,257.6 L220.3,254.3 L213.3,251.8 L214.1,246.9 L221.0,242.5 L217.4,236.0 L216.6,230.5 L229.4,232.4 L238.7,230.4 L244.0,226.9 L259.1,228.2 L261.4,223.6 L265.9,222.5 L269.8,214.8 L277.4,213.6 L286.8,210.3 L292.7,210.5 L297.2,202.7 L310.3,200.8 L315.3,203.9 L314.8,208.3 L321.2,211.6 L329.4,210.2 L339.7,216.7 L346.2,214.4 L355.2,213.8 L360.8,211.1 L367.4,211.0 L385.4,214.5 L391.4,205.1 L402.9,202.9 L411.7,195.7 L422.0,191.8 L448.1,186.8 L454.6,187.5 L470.4,195.8 L480.2,193.6 L471.4,190.7 L481.5,187.6 L497.6,193.6 L501.0,190.9 L526.3,175.9 L535.2,175.1 L544.5,176.4 L538.4,182.8 L547.3,194.9 L553.5,208.0 L568.4,212.6 L577.0,210.8 L588.6,218.0 L586.2,222.1 L594.2,227.9 L613.3,224.4 L620.4,219.2 L632.4,218.1 L634.6,217.0 L636.1,207.1 L639.7,197.8 L643.2,192.8 L652.6,186.8 L663.0,183.8 L680.2,183.5 L707.9,198.2 L722.6,207.4 L746.6,213.9 L762.6,214.9 L772.1,213.5 L779.2,210.9 L781.9,207.5 L774.9,196.8 L772.2,190.6 L771.1,182.0 L772.6,175.8 L781.9,165.4 L788.9,168.7 L805.5,172.8 L813.6,175.6 L847.7,185.4 L873.0,190.9 L886.8,191.7 L903.3,188.9 L925.1,182.3 L935.5,176.8 L948.2,167.9 L968.1,159.5 L990.9,159.0 L999.5,157.5 L1008.9,159.8 L1024.8,159.4 L1034.7,162.4 L1047.0,170.0 L1070.4,174.5 L1082.9,175.9 L1087.3,183.9 L1076.2,187.4 L1072.9,200.0 L1065.9,203.4 L1056.2,204.3 L1046.5,203.3 L1035.4,204.4 L1022.5,213.7 L1015.7,223.9 L998.7,229.2 L992.1,232.9 L987.8,241.0 L987.8,244.7 L977.6,250.9 L970.0,250.9 L955.2,256.4 L954.3,264.4 L956.7,271.4 L951.7,273.1 L949.1,279.4 L944.1,283.5 L934.8,280.2 L917.9,285.2 L920.3,288.5 L930.8,294.9 L926.9,300.5 L921.0,302.8 L913.0,309.7 L910.7,314.0 L915.3,318.4 L914.4,322.8 L908.9,330.7 L912.1,334.4 L914.1,336.4 L910.1,342.6 L911.6,344.1 L904.5,352.8 L909.7,362.7 L900.9,369.3 L890.1,382.0 L891.0,384.3 L882.8,389.0 L880.0,393.6 L885.0,401.8 L876.2,405.1 L861.9,405.9 L857.0,400.6 L828.3,401.4 L823.3,405.2 L826.0,408.9 L821.9,419.9 L816.4,420.0 L800.9,423.2 L799.1,425.7 L807.5,432.7 L819.0,438.0 L815.4,446.9 L822.6,450.3 L823.3,453.4 L810.2,457.2 L807.3,459.5 L806.6,467.6 L803.1,476.1 L823.6,474.4 L842.4,476.9 L846.8,480.2 L861.7,484.8 L874.0,479.3 L889.1,482.0 L877.2,492.5 L884.5,501.0 L875.7,506.3 L878.5,510.9 L870.9,517.6 L865.4,525.8 L871.9,528.7 L872.6,534.3 L868.0,539.3 L863.2,538.2 L848.2,541.5 L831.7,539.9 L817.4,541.3 L814.4,545.6 L802.3,549.6 L795.6,556.3 L798.1,560.5 L798.8,569.3 L791.5,571.8 L780.0,571.7 L766.3,576.7 L760.5,583.5 L749.9,582.9 L751.3,582.1 L745.6,572.7 L726.6,572.7 L721.7,568.0 L712.1,567.5 L705.3,563.1 L695.2,562.9 L684.2,558.4 L678.8,561.5 L662.8,561.4 L645.8,564.7 L641.3,568.9 L631.7,569.8 L621.9,568.7 L606.0,571.2 L600.0,568.7 L577.3,576.7 L559.5,571.4 L549.3,566.4 L544.7,565.8 L544.1,559.1 L537.6,556.3 L529.0,558.2 L528.1,560.5 L531.1,561.6 L532.3,567.5 L521.9,575.6 L504.6,580.5 L498.4,585.4 L486.6,590.6 L475.1,597.9 L475.2,605.3 L461.0,601.8 L444.6,605.7 L430.5,604.4 L411.6,607.0 L391.9,604.1 Z" fill="#8A3FFC" fill-opacity=".15" stroke="#5D24B7" stroke-width="4"/>
  <circle cx="362.2" cy="586.8" r="10" fill="#fff" stroke="#111" stroke-width="4"/>
  <circle cx="362.2" cy="586.8" r="4" fill="#8A3FFC"/>
  <text x="378.2" y="573.8" font-family="Arial,sans-serif" font-size="17" font-weight="700" fill="#26231f">운정중앙</text>
  <g transform="translate(790 110)" font-family="Arial,sans-serif" font-size="16">
    <rect x="-18" y="-24" width="350" height="150" rx="14" fill="#fff" fill-opacity=".88" stroke="#d6d0c7"/>
    <line x1="4" y1="10" x2="54" y2="10" stroke="#5D24B7" stroke-width="6"/><text x="68" y="16" fill="#26231f">보정 경계 · 289점</text>
    <line x1="4" y1="50" x2="54" y2="50" stroke="#d64545" stroke-width="5" stroke-dasharray="10 7"/><text x="68" y="56" fill="#26231f">기존 단순 경계 · 19점</text>
    <rect x="4" y="78" width="50" height="20" fill="#d7d2c9" stroke="#8a8278"/><text x="68" y="95" fill="#26231f">고양시 경계</text>
  </g>
  <text x="70" y="862" font-family="Arial,sans-serif" font-size="15" fill="#67615a">학습용 단순화 경계 · 법적·지적 판정용 아님 · SGIS / vuski-admdongkor</text>
</svg>

